# xmcd CD database file
#
# Track frame offsets:
#	150
#	16337
#	35298
#	54205
#	69140
#	90171
#	115336
#	131346
#	146181
#	162816
#	181692
#	197156
#	216622
#	228137
#	237680
#
# Disc length: 3343 seconds
#
# Revision: 0
# Processed by: cddbd v1.5.2PL0 Copyright (c) Steve Scherf et al.
# Submitted via: CDex 1.70beta2
#
DISCID=c30d0d0f
DTITLE=Dolly Parton - Collector's Edition - Backwoods Barbie
DYEAR=2009
DGENRE=Country
TTITLE0=Better Get to Lovin'
TTITLE1=Made of Stone
TTITLE2=Drives Me Crazy
TTITLE3=Backwoods Barbie
TTITLE4=Jesus and Gravity
TTITLE5=Only Dreamin'
TTITLE6=The Tracks of My Tears
TTITLE7=The Lonesomes
TTITLE8=Cologne
TTITLE9=Shirola
TTITLE10=I Will Forever Hate Roses
TTITLE11=Somebody's Everything
TTITLE12=Rose of My Heart
TTITLE13=Hallelujah Holiday
TTITLE14=Berry Pie
EXTD=YEAR: 2009
EXTT0=
EXTT1=
EXTT2=
EXTT3=
EXTT4=
EXTT5=
EXTT6=
EXTT7=
EXTT8=
EXTT9=
EXTT10=
EXTT11=
EXTT12=
EXTT13=
EXTT14=
PLAYORDER=
